<svg width="19" height="18" viewBox="0 0 19 18" fill="none" xmlns="http://www.w3.org/2000/svg">
<path d="M2.08023 1.66388H15.4518C15.492 1.66388 15.5288 1.67932 15.5665 1.69091L15.8952 0.589594C15.9997 0.239363 16.3165 0 16.6755 0H18.3072C18.5325 0 18.7151 0.186249 18.7151 0.41598V1.2479C18.7151 1.47763 18.5325 1.66388 18.3072 1.66388H17.2798L14.7311 10.2046L15.683 11.337C16.0592 11.7846 16.2286 12.4013 16.0555 12.9637C15.834 13.683 15.2114 14.1429 14.4937 14.1429H2.80605C2.58076 14.1429 2.39811 13.9566 2.39811 13.7269V12.895C2.39811 12.6652 2.58076 12.479 2.80605 12.479H14.4937L13.2006 10.9406C13.1681 10.9019 13.1442 10.8583 13.1195 10.8151H5.21456C4.58228 10.8151 4.00692 10.4428 3.73769 9.8594L0.891104 3.69125C0.809455 3.51374 0.766432 3.31673 0.766432 3.12131V3.0035C0.766432 2.26369 1.35465 1.66388 2.08023 1.66388Z" fill="#F9FBFF"/>
<path d="M13.9074 18.0001C13.0223 18.0001 12.3048 17.2805 12.3048 16.3929C12.3048 15.5053 13.0223 14.7858 13.9074 14.7858C14.7925 14.7858 15.5099 15.5053 15.5099 16.3929C15.5099 17.2805 14.7925 18.0001 13.9074 18.0001Z" fill="white"/>
<path d="M4.29209 18.0001C3.40702 18.0001 2.68953 17.2805 2.68953 16.3929C2.68953 15.5053 3.40702 14.7858 4.29209 14.7858C5.17716 14.7858 5.89465 15.5053 5.89465 16.3929C5.89465 17.2805 5.17716 18.0001 4.29209 18.0001Z" fill="white"/>
</svg>
